<svg xmlns="http://www.w3.org/2000/svg" viewBox="0 0 307.67 77.46">
  <defs>
    <style>
      .activity-icons {
        fill: #fff;
      }
    </style>
  </defs>
  <title>ActivityImage-Matching.png</title>
  <g id="Layer_2" data-name="Layer 2">
    <g id="Activity_Thumbnails" data-name="Activity Thumbnails">
      <g id="ActivityImage-Matching.png">
        <path class="activity-icons" d="M302.67,32.39H174.25v-10l2.9-1.09a5.13,5.13,0,0,1,4,.17,5.34,5.34,0,0,0,6.13-1.28,5.25,5.25,0,0,0-5.76-8.4,5.29,5.29,0,0,1-4.12-.08l-3.14-1.46V0H302.67a5,5,0,0,1,5,5V27.39A5,5,0,0,1,302.67,32.39Zm-126.42-2H302.67a3,3,0,0,0,3-3V5a3,3,0,0,0-3-3H176.25V9l2,.92a3.33,3.33,0,0,0,2.58,0,7.25,7.25,0,1,1-.51,13.37,3.15,3.15,0,0,0-2.44-.12l-1.61.6Z"/>
        <path class="activity-icons" d="M133.42,47.59H5a5,5,0,0,1-5-5V20.2a5,5,0,0,1,5-5H133.42v9l2,.92a3.27,3.27,0,0,0,2.57,0,7.26,7.26,0,0,1,9.74,5.92,7.25,7.25,0,0,1-7.2,8.12,7.06,7.06,0,0,1-3-.67,3.21,3.21,0,0,0-2.45-.12l-1.61.61ZM5,17.2a3,3,0,0,0-3,3V42.59a3,3,0,0,0,3,3H131.42v-8l2.91-1.09a5.13,5.13,0,0,1,4,.18,5.35,5.35,0,0,0,6.12-1.28,5.2,5.2,0,0,0,1.29-4.12h0a5.24,5.24,0,0,0-7-4.29,5.25,5.25,0,0,1-4.12-.07l-3.15-1.46V17.2Z"/>
        <path class="activity-icons" d="M301.34,76.46a1,1,0,0,1,1-1h0a1,1,0,0,1,1,1h0a1,1,0,0,1-1,1h0A1,1,0,0,1,301.34,76.46Zm-4,0a1,1,0,0,1,1-1h0a1,1,0,0,1,1,1h0a1,1,0,0,1-1,1h0A1,1,0,0,1,297.34,76.46Zm-4,0a1,1,0,0,1,1-1h0a1,1,0,0,1,1,1h0a1,1,0,0,1-1,1h0A1,1,0,0,1,293.34,76.46Zm-4,0a1,1,0,0,1,1-1h0a1,1,0,0,1,1,1h0a1,1,0,0,1-1,1h0A1,1,0,0,1,289.34,76.46Zm-4,0a1,1,0,0,1,1-1h0a1,1,0,0,1,1,1h0a1,1,0,0,1-1,1h0A1,1,0,0,1,285.34,76.46Zm-4,0a1,1,0,0,1,1-1h0a1,1,0,0,1,1,1h0a1,1,0,0,1-1,1h0A1,1,0,0,1,281.34,76.46Zm-4,0a1,1,0,0,1,1-1h0a1,1,0,0,1,1,1h0a1,1,0,0,1-1,1h0A1,1,0,0,1,277.34,76.46Zm-4,0a1,1,0,0,1,1-1h0a1,1,0,0,1,1,1h0a1,1,0,0,1-1,1h0A1,1,0,0,1,273.34,76.46Zm-4,0a1,1,0,0,1,1-1h0a1,1,0,0,1,1,1h0a1,1,0,0,1-1,1h0A1,1,0,0,1,269.34,76.46Zm-4,0a1,1,0,0,1,1-1h0a1,1,0,0,1,1,1h0a1,1,0,0,1-1,1h0A1,1,0,0,1,265.34,76.46Zm-4,0a1,1,0,0,1,1-1h0a1,1,0,0,1,1,1h0a1,1,0,0,1-1,1h0A1,1,0,0,1,261.34,76.46Zm-4,0a1,1,0,0,1,1-1h0a1,1,0,0,1,1,1h0a1,1,0,0,1-1,1h0A1,1,0,0,1,257.34,76.46Zm-4,0a1,1,0,0,1,1-1h0a1,1,0,0,1,1,1h0a1,1,0,0,1-1,1h0A1,1,0,0,1,253.34,76.46Zm-4,0a1,1,0,0,1,1-1h0a1,1,0,0,1,1,1h0a1,1,0,0,1-1,1h0A1,1,0,0,1,249.34,76.46Zm-4,0a1,1,0,0,1,1-1h0a1,1,0,0,1,1,1h0a1,1,0,0,1-1,1h0A1,1,0,0,1,245.34,76.46Zm-4,0a1,1,0,0,1,1-1h0a1,1,0,0,1,1,1h0a1,1,0,0,1-1,1h0A1,1,0,0,1,241.34,76.46Zm-4,0a1,1,0,0,1,1-1h0a1,1,0,0,1,1,1h0a1,1,0,0,1-1,1h0A1,1,0,0,1,237.34,76.46Zm-4,0a1,1,0,0,1,1-1h0a1,1,0,0,1,1,1h0a1,1,0,0,1-1,1h0A1,1,0,0,1,233.34,76.46Zm-4,0a1,1,0,0,1,1-1h0a1,1,0,0,1,1,1h0a1,1,0,0,1-1,1h0A1,1,0,0,1,229.34,76.46Zm-4,0a1,1,0,0,1,1-1h0a1,1,0,0,1,1,1h0a1,1,0,0,1-1,1h0A1,1,0,0,1,225.34,76.46Zm-4,0a1,1,0,0,1,1-1h0a1,1,0,0,1,1,1h0a1,1,0,0,1-1,1h0A1,1,0,0,1,221.34,76.46Zm-4,0a1,1,0,0,1,1-1h0a1,1,0,0,1,1,1h0a1,1,0,0,1-1,1h0A1,1,0,0,1,217.34,76.46Zm-4,0a1,1,0,0,1,1-1h0a1,1,0,0,1,1,1h0a1,1,0,0,1-1,1h0A1,1,0,0,1,213.34,76.46Zm-4,0a1,1,0,0,1,1-1h0a1,1,0,0,1,1,1h0a1,1,0,0,1-1,1h0A1,1,0,0,1,209.34,76.46Zm-4,0a1,1,0,0,1,1-1h0a1,1,0,0,1,1,1h0a1,1,0,0,1-1,1h0A1,1,0,0,1,205.34,76.46Zm-4,0a1,1,0,0,1,1-1h0a1,1,0,0,1,1,1h0a1,1,0,0,1-1,1h0A1,1,0,0,1,201.34,76.46Zm-4,0a1,1,0,0,1,1-1h0a1,1,0,0,1,1,1h0a1,1,0,0,1-1,1h0A1,1,0,0,1,197.34,76.46Zm-4,0a1,1,0,0,1,1-1h0a1,1,0,0,1,1,1h0a1,1,0,0,1-1,1h0A1,1,0,0,1,193.34,76.46Zm-4,0a1,1,0,0,1,1-1h0a1,1,0,0,1,1,1h0a1,1,0,0,1-1,1h0A1,1,0,0,1,189.34,76.46Zm-4,0a1,1,0,0,1,1-1h0a1,1,0,0,1,1,1h0a1,1,0,0,1-1,1h0A1,1,0,0,1,185.34,76.46Zm-4,0a1,1,0,0,1,1-1h0a1,1,0,0,1,1,1h0a1,1,0,0,1-1,1h0A1,1,0,0,1,181.34,76.46Zm-4,0a1,1,0,0,1,1-1h0a1,1,0,0,1,1,1h0a1,1,0,0,1-1,1h0A1,1,0,0,1,177.34,76.46Zm-3.09-.91a1,1,0,0,1,1-1h0a1,1,0,0,1,1,1h0a1,1,0,0,1-1,1h0A1,1,0,0,1,174.25,75.55Zm131,.14a1,1,0,0,1-.19-1.41h0a1,1,0,0,1,1.41-.18h0a1,1,0,0,1,.18,1.4h0a1,1,0,0,1-.8.39h0A1,1,0,0,1,305.24,75.69Zm-131-4.14a1,1,0,0,1,1-1h0a1,1,0,0,1,1,1h0a1,1,0,0,1-1,1h0A1,1,0,0,1,174.25,71.55Zm131.42-.47a1,1,0,0,1,1-1h0a1,1,0,0,1,1,1h0a1,1,0,0,1-1,1h0A1,1,0,0,1,305.67,71.08Zm-123.13-3a1,1,0,0,1,1-1h0a1,1,0,0,1,1,1h0a1,1,0,0,1-1,1h0A1,1,0,0,1,182.54,68.07Zm-7.65.23a1,1,0,0,1,.58-1.29h0a1,1,0,0,1,1.29.59h0a1,1,0,0,1-.58,1.28h0a.92.92,0,0,1-.36.07h0A1,1,0,0,1,174.89,68.3Zm4.6-.19a1,1,0,0,1-.8-1.16h0a1,1,0,0,1,1.17-.8h0a1,1,0,0,1,.8,1.16h0a1,1,0,0,1-1,.82h0Zm126.18-1a1,1,0,0,1,1-1h0a1,1,0,0,1,1,1h0a1,1,0,0,1-1,1h0A1,1,0,0,1,305.67,67.07Zm-119.23.24a1,1,0,0,1,.16-1.41h0a1,1,0,0,1,1.41.17h0a1,1,0,0,1-.16,1.4h0a1,1,0,0,1-.62.22h0A1,1,0,0,1,186.44,67.31Zm2.68-2.94a1,1,0,0,1-.71-1.23h0a1,1,0,0,1,1.23-.71h0a1,1,0,0,1,.71,1.23h0a1,1,0,0,1-1,.74h0Zm116.55-1.3a1,1,0,0,1,1-1h0a1,1,0,0,1,1,1h0a1,1,0,0,1-1,1h0A1,1,0,0,1,305.67,63.07ZM188.22,59.85h0a1,1,0,0,1,.56-1.3h0a1,1,0,0,1,1.3.56h0a1,1,0,0,1-.56,1.3h0a1,1,0,0,1-.37.07h0A1,1,0,0,1,188.22,59.85Zm117.45-.78a1,1,0,0,1,1-1h0a1,1,0,0,1,1,1h0a1,1,0,0,1-1,1h0A1,1,0,0,1,305.67,59.07ZM186.09,57.31h0a1,1,0,0,1-.32-1.37h0a1,1,0,0,1,1.38-.32h0a1,1,0,0,1,.32,1.37h0a1,1,0,0,1-.85.47h0A1,1,0,0,1,186.09,57.31Zm-7.36-.11a1,1,0,0,1-.84-1.14h0a1,1,0,0,1,1.13-.84h0a1,1,0,0,1,.85,1.13h0a1,1,0,0,1-1,.86h-.15Zm3.07-1.55a1,1,0,0,1,.9-1.08h0a1,1,0,0,1,1.09.91h0a1,1,0,0,1-.91,1.08h-.09A1,1,0,0,1,181.8,55.65Zm123.87-.57a1,1,0,0,1,1-1h0a1,1,0,0,1,1,1h0a1,1,0,0,1-1,1h0A1,1,0,0,1,305.67,55.08Zm-131.42-.44a1,1,0,0,1,1-1h0a1,1,0,0,1,1,1h0a1,1,0,0,1-1,1h0A1,1,0,0,1,174.25,54.64Zm131.42-3.56a1,1,0,0,1,1-1h0a1,1,0,0,1,1,1h0a1,1,0,0,1-1,1h0A1,1,0,0,1,305.67,51.08Zm-131.42-.44a1,1,0,0,1,1-1h0a1,1,0,0,1,1,1h0a1,1,0,0,1-1,1h0A1,1,0,0,1,174.25,50.64ZM304.87,48a1,1,0,0,1,.06-1.42h0a1,1,0,0,1,1.41.06h0a1,1,0,0,1,0,1.41h0a1,1,0,0,1-.68.27h0A1,1,0,0,1,304.87,48ZM174.25,46.64a1,1,0,0,1,1-1h0a1,1,0,0,1,1,1h0a1,1,0,0,1-1,1h0A1,1,0,0,1,174.25,46.64Zm127.42-.57a1,1,0,0,1,1-1h0a1,1,0,0,1,1,1h0a1,1,0,0,1-1,1h0A1,1,0,0,1,301.67,46.07Zm-4,0a1,1,0,0,1,1-1h0a1,1,0,0,1,1,1h0a1,1,0,0,1-1,1h0A1,1,0,0,1,297.67,46.07Zm-4,0a1,1,0,0,1,1-1h0a1,1,0,0,1,1,1h0a1,1,0,0,1-1,1h0A1,1,0,0,1,293.67,46.07Zm-4,0a1,1,0,0,1,1-1h0a1,1,0,0,1,1,1h0a1,1,0,0,1-1,1h0A1,1,0,0,1,289.67,46.07Zm-4,0a1,1,0,0,1,1-1h0a1,1,0,0,1,1,1h0a1,1,0,0,1-1,1h0A1,1,0,0,1,285.67,46.07Zm-4,0a1,1,0,0,1,1-1h0a1,1,0,0,1,1,1h0a1,1,0,0,1-1,1h0A1,1,0,0,1,281.67,46.07Zm-4,0a1,1,0,0,1,1-1h0a1,1,0,0,1,1,1h0a1,1,0,0,1-1,1h0A1,1,0,0,1,277.67,46.07Zm-4,0a1,1,0,0,1,1-1h0a1,1,0,0,1,1,1h0a1,1,0,0,1-1,1h0A1,1,0,0,1,273.67,46.07Zm-4,0a1,1,0,0,1,1-1h0a1,1,0,0,1,1,1h0a1,1,0,0,1-1,1h0A1,1,0,0,1,269.67,46.07Zm-4,0a1,1,0,0,1,1-1h0a1,1,0,0,1,1,1h0a1,1,0,0,1-1,1h0A1,1,0,0,1,265.67,46.07Zm-4,0a1,1,0,0,1,1-1h0a1,1,0,0,1,1,1h0a1,1,0,0,1-1,1h0A1,1,0,0,1,261.67,46.07Zm-4,0a1,1,0,0,1,1-1h0a1,1,0,0,1,1,1h0a1,1,0,0,1-1,1h0A1,1,0,0,1,257.67,46.07Zm-4,0a1,1,0,0,1,1-1h0a1,1,0,0,1,1,1h0a1,1,0,0,1-1,1h0A1,1,0,0,1,253.67,46.07Zm-4,0a1,1,0,0,1,1-1h0a1,1,0,0,1,1,1h0a1,1,0,0,1-1,1h0A1,1,0,0,1,249.67,46.07Zm-4,0a1,1,0,0,1,1-1h0a1,1,0,0,1,1,1h0a1,1,0,0,1-1,1h0A1,1,0,0,1,245.67,46.07Zm-4,0a1,1,0,0,1,1-1h0a1,1,0,0,1,1,1h0a1,1,0,0,1-1,1h0A1,1,0,0,1,241.67,46.07Zm-4,0a1,1,0,0,1,1-1h0a1,1,0,0,1,1,1h0a1,1,0,0,1-1,1h0A1,1,0,0,1,237.67,46.07Zm-4,0a1,1,0,0,1,1-1h0a1,1,0,0,1,1,1h0a1,1,0,0,1-1,1h0A1,1,0,0,1,233.67,46.07Zm-4,0a1,1,0,0,1,1-1h0a1,1,0,0,1,1,1h0a1,1,0,0,1-1,1h0A1,1,0,0,1,229.67,46.07Zm-4,0a1,1,0,0,1,1-1h0a1,1,0,0,1,1,1h0a1,1,0,0,1-1,1h0A1,1,0,0,1,225.67,46.07Zm-4,0a1,1,0,0,1,1-1h0a1,1,0,0,1,1,1h0a1,1,0,0,1-1,1h0A1,1,0,0,1,221.67,46.07Zm-4,0a1,1,0,0,1,1-1h0a1,1,0,0,1,1,1h0a1,1,0,0,1-1,1h0A1,1,0,0,1,217.67,46.07Zm-4,0a1,1,0,0,1,1-1h0a1,1,0,0,1,1,1h0a1,1,0,0,1-1,1h0A1,1,0,0,1,213.67,46.07Zm-4,0a1,1,0,0,1,1-1h0a1,1,0,0,1,1,1h0a1,1,0,0,1-1,1h0A1,1,0,0,1,209.67,46.07Zm-4,0a1,1,0,0,1,1-1h0a1,1,0,0,1,1,1h0a1,1,0,0,1-1,1h0A1,1,0,0,1,205.67,46.07Zm-4,0a1,1,0,0,1,1-1h0a1,1,0,0,1,1,1h0a1,1,0,0,1-1,1h0A1,1,0,0,1,201.67,46.07Zm-4,0a1,1,0,0,1,1-1h0a1,1,0,0,1,1,1h0a1,1,0,0,1-1,1h0A1,1,0,0,1,197.67,46.07Zm-4,0a1,1,0,0,1,1-1h0a1,1,0,0,1,1,1h0a1,1,0,0,1-1,1h0A1,1,0,0,1,193.67,46.07Zm-4,0a1,1,0,0,1,1-1h0a1,1,0,0,1,1,1h0a1,1,0,0,1-1,1h0A1,1,0,0,1,189.67,46.07Zm-4,0a1,1,0,0,1,1-1h0a1,1,0,0,1,1,1h0a1,1,0,0,1-1,1h0A1,1,0,0,1,185.67,46.07Zm-4,0a1,1,0,0,1,1-1h0a1,1,0,0,1,1,1h0a1,1,0,0,1-1,1h0A1,1,0,0,1,181.67,46.07Zm-4,0a1,1,0,0,1,1-1h0a1,1,0,0,1,1,1h0a1,1,0,0,1-1,1h0A1,1,0,0,1,177.67,46.07Z"/>
        <path class="activity-icons" d="M149.06,27.83a1,1,0,0,1,.59-1.28h0a1,1,0,0,1,1.29.6h0a1,1,0,0,1-.6,1.28h0a1.07,1.07,0,0,1-.35.06h0A1,1,0,0,1,149.06,27.83Zm3.76-1.36a1,1,0,0,1,.6-1.28h0a1,1,0,0,1,1.28.6h0a1,1,0,0,1-.6,1.28h0a1.07,1.07,0,0,1-.35.06h0A1,1,0,0,1,152.82,26.47Zm3.76-1.36a1,1,0,0,1,.6-1.28h0a1,1,0,0,1,1.28.6h0a1,1,0,0,1-.6,1.28h0a1.06,1.06,0,0,1-.34.06h0A1,1,0,0,1,156.58,25.11Zm3.76-1.36a1,1,0,0,1,.6-1.28h0a1,1,0,0,1,1.28.6h0a1,1,0,0,1-.6,1.28h0a1,1,0,0,1-.34.06h0A1,1,0,0,1,160.34,23.75Zm3.76-1.36a1,1,0,0,1,.6-1.28h0a1,1,0,0,1,1.28.6h0a1,1,0,0,1-.6,1.28h0a1,1,0,0,1-.34.06h0A1,1,0,0,1,164.1,22.39ZM167.86,21a1,1,0,0,1,.6-1.28h0a1,1,0,0,1,1.28.6h0a1,1,0,0,1-.6,1.28h0a1,1,0,0,1-.34.06h0A1,1,0,0,1,167.86,21Zm3.76-1.36a1,1,0,0,1,.6-1.28h0a1,1,0,0,1,1.28.6h0a1,1,0,0,1-.6,1.28h0a.79.79,0,0,1-.34.06h0A1,1,0,0,1,171.62,19.66Zm3.77-1.36A1,1,0,0,1,176,17h0a1,1,0,0,1,1.29.6h0a1,1,0,0,1-.61,1.28h0a1,1,0,0,1-.34.06h0A1,1,0,0,1,175.39,18.3Zm3.76-1.36a1,1,0,0,1,.6-1.28h0a1,1,0,0,1,1.28.6h0a1,1,0,0,1-.6,1.28h0a1.06,1.06,0,0,1-.34.06h0A1,1,0,0,1,179.15,16.94Z"/>
      </g>
    </g>
  </g>
</svg>
