<svg xmlns="http://www.w3.org/2000/svg" viewBox="0 0 308.5 77.46">
  <defs>
    <style>
      .activity-icons {
        fill: #fff;
      }
    </style>
  </defs>
  <title>ActivityImage-Triple.png</title>
  <g id="Layer_2" data-name="Layer 2">
    <g id="Activity_Thumbnails" data-name="Activity Thumbnails">
      <g id="ActivityImage-Triple.png">
        <g>
          <path class="activity-icons" d="M180.16,2a1,1,0,0,1-.38-.08.91.91,0,0,1-.33-.22,1,1,0,0,1-.21-.32,1,1,0,0,1-.08-.38,1,1,0,0,1,.08-.39,1,1,0,0,1,.21-.32,1,1,0,0,1,.9-.27l.19.05a1.06,1.06,0,0,1,.33.22,1,1,0,0,1,.21.32,1,1,0,0,1,.08.39,1,1,0,0,1-.29.7,1,1,0,0,1-.33.22A1,1,0,0,1,180.16,2Z"/>
          <path class="activity-icons" d="M175.15,76.46a1,1,0,0,1,1-1h0a1,1,0,0,1,1,1h0a1,1,0,0,1-1,1h0A1,1,0,0,1,175.15,76.46Zm-4,0a1,1,0,0,1,1-1h0a1,1,0,0,1,1,1h0a1,1,0,0,1-1,1h0A1,1,0,0,1,171.16,76.46Zm-4,0a1,1,0,0,1,1-1h0a1,1,0,0,1,1,1h0a1,1,0,0,1-1,1h0A1,1,0,0,1,167.18,76.46Zm-4,0a1,1,0,0,1,1-1h0a1,1,0,0,1,1,1h0a1,1,0,0,1-1,1h0A1,1,0,0,1,163.2,76.46Zm-4,0a1,1,0,0,1,1-1h0a1,1,0,0,1,1,1h0a1,1,0,0,1-1,1h0A1,1,0,0,1,159.21,76.46Zm-4,0a1,1,0,0,1,1-1h0a1,1,0,0,1,1,1h0a1,1,0,0,1-1,1h0A1,1,0,0,1,155.23,76.46Zm-4,0a1,1,0,0,1,1-1h0a1,1,0,0,1,1,1h0a1,1,0,0,1-1,1h0A1,1,0,0,1,151.24,76.46Zm-4,0a1,1,0,0,1,1-1h0a1,1,0,0,1,1,1h0a1,1,0,0,1-1,1h0A1,1,0,0,1,147.26,76.46Zm-4,0a1,1,0,0,1,1-1h0a1,1,0,0,1,1,1h0a1,1,0,0,1-1,1h0A1,1,0,0,1,143.27,76.46Zm-4,0a1,1,0,0,1,1-1h0a1,1,0,0,1,1,1h0a1,1,0,0,1-1,1h0A1,1,0,0,1,139.29,76.46Zm-4,0a1,1,0,0,1,1-1h0a1,1,0,0,1,1,1h0a1,1,0,0,1-1,1h0A1,1,0,0,1,135.31,76.46Zm-4,0a1,1,0,0,1,1-1h0a1,1,0,0,1,1,1h0a1,1,0,0,1-1,1h0A1,1,0,0,1,131.32,76.46Zm-4,0a1,1,0,0,1,1-1h0a1,1,0,0,1,1,1h0a1,1,0,0,1-1,1h0A1,1,0,0,1,127.34,76.46Zm-4,0a1,1,0,0,1,1-1h0a1,1,0,0,1,1,1h0a1,1,0,0,1-1,1h0A1,1,0,0,1,123.35,76.46Zm-4,0a1,1,0,0,1,1-1h0a1,1,0,0,1,1,1h0a1,1,0,0,1-1,1h0A1,1,0,0,1,119.37,76.46Zm-4,0a1,1,0,0,1,1-1h0a1,1,0,0,1,1,1h0a1,1,0,0,1-1,1h0A1,1,0,0,1,115.38,76.46Zm-4,0a1,1,0,0,1,1-1h0a1,1,0,0,1,1,1h0a1,1,0,0,1-1,1h0A1,1,0,0,1,111.4,76.46Zm-4,0a1,1,0,0,1,1-1h0a1,1,0,0,1,1,1h0a1,1,0,0,1-1,1h0A1,1,0,0,1,107.41,76.46Zm-4,0a1,1,0,0,1,1-1h0a1,1,0,0,1,1,1h0a1,1,0,0,1-1,1h0A1,1,0,0,1,103.43,76.46Zm-4,0a1,1,0,0,1,1-1h0a1,1,0,0,1,1,1h0a1,1,0,0,1-1,1h0A1,1,0,0,1,99.45,76.46Zm-4,0a1,1,0,0,1,1-1h0a1,1,0,0,1,1,1h0a1,1,0,0,1-1,1h0A1,1,0,0,1,95.46,76.46Zm-4,0a1,1,0,0,1,1-1h0a1,1,0,0,1,1,1h0a1,1,0,0,1-1,1h0A1,1,0,0,1,91.48,76.46Zm-4,0a1,1,0,0,1,1-1h0a1,1,0,0,1,1,1h0a1,1,0,0,1-1,1h0A1,1,0,0,1,87.49,76.46Zm-4,0a1,1,0,0,1,1-1h0a1,1,0,0,1,1,1h0a1,1,0,0,1-1,1h0A1,1,0,0,1,83.51,76.46Zm-4,0a1,1,0,0,1,1-1h0a1,1,0,0,1,1,1h0a1,1,0,0,1-1,1h0A1,1,0,0,1,79.52,76.46Zm-4,0a1,1,0,0,1,1-1h0a1,1,0,0,1,1,1h0a1,1,0,0,1-1,1h0A1,1,0,0,1,75.54,76.46Zm-4,0a1,1,0,0,1,1-1h0a1,1,0,0,1,1,1h0a1,1,0,0,1-1,1h0A1,1,0,0,1,71.56,76.46Zm-4,0a1,1,0,0,1,1-1h0a1,1,0,0,1,1,1h0a1,1,0,0,1-1,1h0A1,1,0,0,1,67.57,76.46Zm-4,0a1,1,0,0,1,1-1h0a1,1,0,0,1,1,1h0a1,1,0,0,1-1,1h0A1,1,0,0,1,63.59,76.46Zm-4,0a1,1,0,0,1,1-1h0a1,1,0,0,1,1,1h0a1,1,0,0,1-1,1h0A1,1,0,0,1,59.6,76.46Zm-4,0a1,1,0,0,1,1-1h0a1,1,0,0,1,1,1h0a1,1,0,0,1-1,1h0A1,1,0,0,1,55.62,76.46Zm-4,0a1,1,0,0,1,1-1h0a1,1,0,0,1,1,1h0a1,1,0,0,1-1,1h0A1,1,0,0,1,51.63,76.46Zm-4,0a1,1,0,0,1,1-1h0a1,1,0,0,1,1,1h0a1,1,0,0,1-1,1h0A1,1,0,0,1,47.65,76.46Zm-4,0a1,1,0,0,1,1-1h0a1,1,0,0,1,1,1h0a1,1,0,0,1-1,1h0A1,1,0,0,1,43.66,76.46Zm-4,0a1,1,0,0,1,1-1h0a1,1,0,0,1,1,1h0a1,1,0,0,1-1,1h0A1,1,0,0,1,39.68,76.46Zm-4,0a1,1,0,0,1,1-1h0a1,1,0,0,1,1,1h0a1,1,0,0,1-1,1h0A1,1,0,0,1,35.7,76.46Zm-4,0a1,1,0,0,1,1-1h0a1,1,0,0,1,1,1h0a1,1,0,0,1-1,1h0A1,1,0,0,1,31.71,76.46Zm-4,0a1,1,0,0,1,1-1h0a1,1,0,0,1,1,1h0a1,1,0,0,1-1,1h0A1,1,0,0,1,27.72,76.46Zm-4,0a1,1,0,0,1,1-1h0a1,1,0,0,1,1,1h0a1,1,0,0,1-1,1h0A1,1,0,0,1,23.74,76.46Zm-4,0a1,1,0,0,1,1-1h0a1,1,0,0,1,1,1h0a1,1,0,0,1-1,1h0A1,1,0,0,1,19.76,76.46Zm-4,0a1,1,0,0,1,1-1h0a1,1,0,0,1,1,1h0a1,1,0,0,1-1,1h0A1,1,0,0,1,15.77,76.46Zm-4,0a1,1,0,0,1,1-1h0a1,1,0,0,1,1,1h0a1,1,0,0,1-1,1h0A1,1,0,0,1,11.79,76.46Zm-4,0a1,1,0,0,1,1-1h0a1,1,0,0,1,1,1h0a1,1,0,0,1-1,1h0A1,1,0,0,1,7.8,76.46Zm-3,1a1,1,0,0,1-1-1h0a1,1,0,0,1,1-1h0a1,1,0,0,1,1,1h0a1,1,0,0,1-1,1h0ZM.69,75h0a1,1,0,0,1,.36-1.37h0A1,1,0,0,1,2.41,74h0a1,1,0,0,1-.35,1.37h0a1.06,1.06,0,0,1-.51.14h0A1,1,0,0,1,.69,75ZM0,70.59a1,1,0,0,1,1-1H1a1,1,0,0,1,1,1H2a1,1,0,0,1-1,1H1A1,1,0,0,1,0,70.59Zm0-4a1,1,0,0,1,1-1H1a1,1,0,0,1,1,1H2a1,1,0,0,1-1,1H1A1,1,0,0,1,0,66.61Zm0-4a1,1,0,0,1,1-1H1a1,1,0,0,1,1,1H2a1,1,0,0,1-1,1H1A1,1,0,0,1,0,62.62Zm0-4a1,1,0,0,1,1-1H1a1,1,0,0,1,1,1H2a1,1,0,0,1-1,1H1A1,1,0,0,1,0,58.64Zm0-4a1,1,0,0,1,1-1H1a1,1,0,0,1,1,1H2a1,1,0,0,1-1,1H1A1,1,0,0,1,0,54.65Zm0-4a1,1,0,0,1,1-1H1a1,1,0,0,1,1,1H2a1,1,0,0,1-1,1H1A1,1,0,0,1,0,50.67Zm0-4a1,1,0,0,1,1-1H1a1,1,0,0,1,1,1H2a1,1,0,0,1-1,1H1A1,1,0,0,1,0,46.68Zm0-4a1,1,0,0,1,1-1H1a1,1,0,0,1,1,1H2a1,1,0,0,1-1,1H1A1,1,0,0,1,0,42.7Zm0-4a1,1,0,0,1,1-1H1a1,1,0,0,1,1,1H2a1,1,0,0,1-1,1H1A1,1,0,0,1,0,38.71Zm0-4a1,1,0,0,1,1-1H1a1,1,0,0,1,1,1H2a1,1,0,0,1-1,1H1A1,1,0,0,1,0,34.73Zm0-4a1,1,0,0,1,1-1H1a1,1,0,0,1,1,1H2a1,1,0,0,1-1,1H1A1,1,0,0,1,0,30.75Zm0-4a1,1,0,0,1,1-1H1a1,1,0,0,1,1,1H2a1,1,0,0,1-1,1H1A1,1,0,0,1,0,26.76Zm0-4a1,1,0,0,1,1-1H1a1,1,0,0,1,1,1H2a1,1,0,0,1-1,1H1A1,1,0,0,1,0,22.78Zm0-4a1,1,0,0,1,1-1H1a1,1,0,0,1,1,1H2a1,1,0,0,1-1,1H1A1,1,0,0,1,0,18.79Zm0-4a1,1,0,0,1,1-1H1a1,1,0,0,1,1,1H2a1,1,0,0,1-1,1H1A1,1,0,0,1,0,14.81Zm0-4a1,1,0,0,1,1-1H1a1,1,0,0,1,1,1H2a1,1,0,0,1-1,1H1A1,1,0,0,1,0,10.82Zm0-4a1,1,0,0,1,1-1H1a1,1,0,0,1,1,1H2a1,1,0,0,1-1,1H1A1,1,0,0,1,0,6.84Zm1.05-3A1,1,0,0,1,.7,2.44h0A1,1,0,0,1,2.07,2.1h0a1,1,0,0,1,.35,1.37h0A1,1,0,0,1,1.56,4h0A1.06,1.06,0,0,1,1.05,3.82ZM3.85,1A1,1,0,0,1,4.8,0h0a1,1,0,0,1,1,1h0a1,1,0,0,1-1,1h0A1,1,0,0,1,3.85,1ZM175.18,1a1,1,0,0,1,1-1h0a1,1,0,0,1,1,1h0a1,1,0,0,1-1,1h0A1,1,0,0,1,175.18,1Zm-4,0a1,1,0,0,1,1-1h0a1,1,0,0,1,1,1h0a1,1,0,0,1-1,1h0A1,1,0,0,1,171.19,1Zm-4,0a1,1,0,0,1,1-1h0a1,1,0,0,1,1,1h0a1,1,0,0,1-1,1h0A1,1,0,0,1,167.2,1Zm-4,0a1,1,0,0,1,1-1h0a1,1,0,0,1,1,1h0a1,1,0,0,1-1,1h0A1,1,0,0,1,163.22,1Zm-4,0a1,1,0,0,1,1-1h0a1,1,0,0,1,1,1h0a1,1,0,0,1-1,1h0A1,1,0,0,1,159.24,1Zm-4,0a1,1,0,0,1,1-1h0a1,1,0,0,1,1,1h0a1,1,0,0,1-1,1h0A1,1,0,0,1,155.25,1Zm-4,0a1,1,0,0,1,1-1h0a1,1,0,0,1,1,1h0a1,1,0,0,1-1,1h0A1,1,0,0,1,151.27,1Zm-4,0a1,1,0,0,1,1-1h0a1,1,0,0,1,1,1h0a1,1,0,0,1-1,1h0A1,1,0,0,1,147.28,1Zm-4,0a1,1,0,0,1,1-1h0a1,1,0,0,1,1,1h0a1,1,0,0,1-1,1h0A1,1,0,0,1,143.3,1Zm-4,0a1,1,0,0,1,1-1h0a1,1,0,0,1,1,1h0a1,1,0,0,1-1,1h0A1,1,0,0,1,139.31,1Zm-4,0a1,1,0,0,1,1-1h0a1,1,0,0,1,1,1h0a1,1,0,0,1-1,1h0A1,1,0,0,1,135.33,1Zm-4,0a1,1,0,0,1,1-1h0a1,1,0,0,1,1,1h0a1,1,0,0,1-1,1h0A1,1,0,0,1,131.35,1Zm-4,0a1,1,0,0,1,1-1h0a1,1,0,0,1,1,1h0a1,1,0,0,1-1,1h0A1,1,0,0,1,127.36,1Zm-4,0a1,1,0,0,1,1-1h0a1,1,0,0,1,1,1h0a1,1,0,0,1-1,1h0A1,1,0,0,1,123.38,1Zm-4,0a1,1,0,0,1,1-1h0a1,1,0,0,1,1,1h0a1,1,0,0,1-1,1h0A1,1,0,0,1,119.39,1Zm-4,0a1,1,0,0,1,1-1h0a1,1,0,0,1,1,1h0a1,1,0,0,1-1,1h0A1,1,0,0,1,115.41,1Zm-4,0a1,1,0,0,1,1-1h0a1,1,0,0,1,1,1h0a1,1,0,0,1-1,1h0A1,1,0,0,1,111.42,1Zm-4,0a1,1,0,0,1,1-1h0a1,1,0,0,1,1,1h0a1,1,0,0,1-1,1h0A1,1,0,0,1,107.44,1Zm-4,0a1,1,0,0,1,1-1h0a1,1,0,0,1,1,1h0a1,1,0,0,1-1,1h0A1,1,0,0,1,103.45,1Zm-4,0a1,1,0,0,1,1-1h0a1,1,0,0,1,1,1h0a1,1,0,0,1-1,1h0A1,1,0,0,1,99.47,1Zm-4,0a1,1,0,0,1,1-1h0a1,1,0,0,1,1,1h0a1,1,0,0,1-1,1h0A1,1,0,0,1,95.49,1Zm-4,0a1,1,0,0,1,1-1h0a1,1,0,0,1,1,1h0a1,1,0,0,1-1,1h0A1,1,0,0,1,91.5,1Zm-4,0a1,1,0,0,1,1-1h0a1,1,0,0,1,1,1h0a1,1,0,0,1-1,1h0A1,1,0,0,1,87.52,1Zm-4,0a1,1,0,0,1,1-1h0a1,1,0,0,1,1,1h0a1,1,0,0,1-1,1h0A1,1,0,0,1,83.53,1Zm-4,0a1,1,0,0,1,1-1h0a1,1,0,0,1,1,1h0a1,1,0,0,1-1,1h0A1,1,0,0,1,79.55,1Zm-4,0a1,1,0,0,1,1-1h0a1,1,0,0,1,1,1h0a1,1,0,0,1-1,1h0A1,1,0,0,1,75.56,1Zm-4,0a1,1,0,0,1,1-1h0a1,1,0,0,1,1,1h0a1,1,0,0,1-1,1h0A1,1,0,0,1,71.58,1Zm-4,0a1,1,0,0,1,1-1h0a1,1,0,0,1,1,1h0a1,1,0,0,1-1,1h0A1,1,0,0,1,67.6,1Zm-4,0a1,1,0,0,1,1-1h0a1,1,0,0,1,1,1h0a1,1,0,0,1-1,1h0A1,1,0,0,1,63.61,1Zm-4,0a1,1,0,0,1,1-1h0a1,1,0,0,1,1,1h0a1,1,0,0,1-1,1h0A1,1,0,0,1,59.63,1Zm-4,0a1,1,0,0,1,1-1h0a1,1,0,0,1,1,1h0a1,1,0,0,1-1,1h0A1,1,0,0,1,55.64,1Zm-4,0a1,1,0,0,1,1-1h0a1,1,0,0,1,1,1h0a1,1,0,0,1-1,1h0A1,1,0,0,1,51.66,1Zm-4,0a1,1,0,0,1,1-1h0a1,1,0,0,1,1,1h0a1,1,0,0,1-1,1h0A1,1,0,0,1,47.67,1Zm-4,0a1,1,0,0,1,1-1h0a1,1,0,0,1,1,1h0a1,1,0,0,1-1,1h0A1,1,0,0,1,43.69,1Zm-4,0a1,1,0,0,1,1-1h0a1,1,0,0,1,1,1h0a1,1,0,0,1-1,1h0A1,1,0,0,1,39.7,1Zm-4,0a1,1,0,0,1,1-1h0a1,1,0,0,1,1,1h0a1,1,0,0,1-1,1h0A1,1,0,0,1,35.72,1Zm-4,0a1,1,0,0,1,1-1h0a1,1,0,0,1,1,1h0a1,1,0,0,1-1,1h0A1,1,0,0,1,31.74,1Zm-4,0a1,1,0,0,1,1-1h0a1,1,0,0,1,1,1h0a1,1,0,0,1-1,1h0A1,1,0,0,1,27.75,1Zm-4,0a1,1,0,0,1,1-1h0a1,1,0,0,1,1,1h0a1,1,0,0,1-1,1h0A1,1,0,0,1,23.77,1Zm-4,0a1,1,0,0,1,1-1h0a1,1,0,0,1,1,1h0a1,1,0,0,1-1,1h0A1,1,0,0,1,19.78,1Zm-4,0a1,1,0,0,1,1-1h0a1,1,0,0,1,1,1h0a1,1,0,0,1-1,1h0A1,1,0,0,1,15.8,1Zm-4,0a1,1,0,0,1,1-1h0a1,1,0,0,1,1,1h0a1,1,0,0,1-1,1h0A1,1,0,0,1,11.81,1Zm-4,0a1,1,0,0,1,1-1h0a1,1,0,0,1,1,1h0a1,1,0,0,1-1,1h0A1,1,0,0,1,7.83,1Z"/>
          <path class="activity-icons" d="M180.16,77.46a1,1,0,0,1-.38-.08,1,1,0,0,1-.33-.21,1.15,1.15,0,0,1-.21-.33.94.94,0,0,1,0-.76.93.93,0,0,1,.21-.33,1,1,0,0,1,1.42,0,.93.93,0,0,1,.21.33,1,1,0,0,1,.08.38,1,1,0,0,1-1,1Z"/>
        </g>
        <path class="activity-icons" d="M303.5,77.46H175.08V0H303.5a5,5,0,0,1,5,5V72.46A5,5,0,0,1,303.5,77.46Zm-126.42-2H303.5a3,3,0,0,0,3-3V5a3,3,0,0,0-3-3H177.08Z"/>
        <path class="activity-icons" d="M308.5,52.31H175.08V25.15H308.5Zm-131.42-2H306.5V27.15H177.08Z"/>
        <path class="activity-icons" d="M195.74,20.34A7.25,7.25,0,1,1,203,13.09,7.26,7.26,0,0,1,195.74,20.34Zm0-12.5A5.25,5.25,0,1,0,201,13.09,5.26,5.26,0,0,0,195.74,7.84Z"/>
        <path class="activity-icons" d="M195.74,46A7.25,7.25,0,1,1,203,38.73,7.26,7.26,0,0,1,195.74,46Zm0-12.5A5.25,5.25,0,1,0,201,38.73,5.26,5.26,0,0,0,195.74,33.48Z"/>
        <path class="activity-icons" d="M195.74,70.57A7.25,7.25,0,1,1,203,63.32,7.26,7.26,0,0,1,195.74,70.57Zm0-12.5A5.25,5.25,0,1,0,201,63.32,5.26,5.26,0,0,0,195.74,58.07Z"/>
      </g>
    </g>
  </g>
</svg>
