<svg xmlns="http://www.w3.org/2000/svg" viewBox="0 0 307.67 77.46">
  <defs>
    <style>
      .activity-icons {
        fill: #fff;
      }
    </style>
  </defs>
  <title>ActivityImage-CardFlip.png</title>
  <g id="Layer_2" data-name="Layer 2">
    <g id="Activity_Thumbnails" data-name="Activity Thumbnails">
      <g id="ActivityImage-CardFlip.png">
        <g>
          <path class="activity-icons" d="M172.64,10.31a1,1,0,0,1-.39-.07,1.58,1.58,0,0,1-.33-.22,1.18,1.18,0,0,1-.21-.32,1.23,1.23,0,0,1-.07-.39,1.07,1.07,0,0,1,.28-.7,1,1,0,0,1,1.43,0,1.18,1.18,0,0,1,.21.32,1,1,0,0,1,.08.38,1,1,0,0,1-.08.39.85.85,0,0,1-.21.32A1,1,0,0,1,172.64,10.31Z"/>
          <path class="activity-icons" d="M167.79,76.46a1,1,0,0,1,1-1h0a1,1,0,0,1,1,1h0a1,1,0,0,1-1,1h0A1,1,0,0,1,167.79,76.46Zm-3.94,0a1,1,0,0,1,1-1h0a1,1,0,0,1,1,1h0a1,1,0,0,1-1,1h0A1,1,0,0,1,163.85,76.46Zm-3.95,0a1,1,0,0,1,1-1h0a1,1,0,0,1,1,1h0a1,1,0,0,1-1,1h0A1,1,0,0,1,159.9,76.46Zm-4,0a1,1,0,0,1,1-1h0a1,1,0,0,1,1,1h0a1,1,0,0,1-1,1h0A1,1,0,0,1,156,76.46Zm-3.95,0a1,1,0,0,1,1-1h0a1,1,0,0,1,1,1h0a1,1,0,0,1-1,1h0A1,1,0,0,1,152,76.46Zm-4,0a1,1,0,0,1,1-1h0a1,1,0,0,1,1,1h0a1,1,0,0,1-1,1h0A1,1,0,0,1,148,76.46Zm-3.93,0a1,1,0,0,1,1-1h0a1,1,0,0,1,1,1h0a1,1,0,0,1-1,1h0A1,1,0,0,1,144.11,76.46Zm-4,0a1,1,0,0,1,1-1h0a1,1,0,0,1,1,1h0a1,1,0,0,1-1,1h0A1,1,0,0,1,140.16,76.46Zm-3.95,0a1,1,0,0,1,1-1h0a1,1,0,0,1,1,1h0a1,1,0,0,1-1,1h0A1,1,0,0,1,136.21,76.46Zm35.54.08a1,1,0,0,1,.87-1.1h0a1,1,0,0,1,1.12.88h0a1,1,0,0,1-.89,1.11h-.11A1,1,0,0,1,171.75,76.54Zm-38.89.38a1,1,0,0,1-.41-1.36h0a1,1,0,0,1,1.34-.41h0a1,1,0,0,1,.42,1.35h0a1,1,0,0,1-.88.53h0A1.08,1.08,0,0,1,132.86,76.92Zm42.54-1.75a1,1,0,0,1-.42-1.35h0a1,1,0,0,1,1.34-.43h0a1,1,0,0,1,.43,1.35h0a1,1,0,0,1-.89.54h0A1.07,1.07,0,0,1,175.4,75.17Zm-.11-4.77a1,1,0,0,1,1-1h0a1,1,0,0,1,1,1h0a1,1,0,0,1-1,1h0A1,1,0,0,1,175.29,70.4Zm0-4a1,1,0,0,1,1-1h0a1,1,0,0,1,1,1h0a1,1,0,0,1-1,1h0A1,1,0,0,1,175.29,66.45Zm0-3.94a1,1,0,0,1,1-1h0a1,1,0,0,1,1,1h0a1,1,0,0,1-1,1h0A1,1,0,0,1,175.29,62.51Zm0-3.95a1,1,0,0,1,1-1h0a1,1,0,0,1,1,1h0a1,1,0,0,1-1,1h0A1,1,0,0,1,175.29,58.56Zm0-4a1,1,0,0,1,1-1h0a1,1,0,0,1,1,1h0a1,1,0,0,1-1,1h0A1,1,0,0,1,175.29,54.61Zm0-4a1,1,0,0,1,1-1h0a1,1,0,0,1,1,1h0a1,1,0,0,1-1,1h0A1,1,0,0,1,175.29,50.66Zm0-3.95a1,1,0,0,1,1-1h0a1,1,0,0,1,1,1h0a1,1,0,0,1-1,1h0A1,1,0,0,1,175.29,46.71Zm0-4a1,1,0,0,1,1-1h0a1,1,0,0,1,1,1h0a1,1,0,0,1-1,1h0A1,1,0,0,1,175.29,42.76Zm0-3.94a1,1,0,0,1,1-1h0a1,1,0,0,1,1,1h0a1,1,0,0,1-1,1h0A1,1,0,0,1,175.29,38.82Zm0-4a1,1,0,0,1,1-1h0a1,1,0,0,1,1,1h0a1,1,0,0,1-1,1h0A1,1,0,0,1,175.29,34.87Zm0-3.95a1,1,0,0,1,1-1h0a1,1,0,0,1,1,1h0a1,1,0,0,1-1,1h0A1,1,0,0,1,175.29,30.92Zm0-4a1,1,0,0,1,1-1h0a1,1,0,0,1,1,1h0a1,1,0,0,1-1,1h0A1,1,0,0,1,175.29,27Zm0-3.95a1,1,0,0,1,1-1h0a1,1,0,0,1,1,1h0a1,1,0,0,1-1,1h0A1,1,0,0,1,175.29,23Zm0-3.94a1,1,0,0,1,1-1h0a1,1,0,0,1,1,1h0a1,1,0,0,1-1,1h0A1,1,0,0,1,175.29,19.08Zm0-4a1,1,0,0,1,1-1h0a1,1,0,0,1,1,1h0a1,1,0,0,1-1,1h0A1,1,0,0,1,175.29,15.12Zm-.3-3.4a1,1,0,0,1,.4-1.35h0a1,1,0,0,1,1.36.4h0a1,1,0,0,1-.42,1.35h0a.93.93,0,0,1-.46.12h0A1,1,0,0,1,175,11.72Z"/>
          <path class="activity-icons" d="M131.38,73.79a1,1,0,0,1-.39-.07.91.91,0,0,1-.32-.22.87.87,0,0,1-.22-.32,1,1,0,0,1-.07-.38,1,1,0,0,1,.07-.39,1,1,0,0,1,1.63-.32,1,1,0,0,1,.29.71.84.84,0,0,1-.08.38.85.85,0,0,1-.21.32A1,1,0,0,1,131.38,73.79Z"/>
        </g>
        <path class="activity-icons" d="M107.11,77.46H70.19a5,5,0,0,1-5-5V13.32a5,5,0,0,1,5-5h36.92a5,5,0,0,1,5,5V72.46A5,5,0,0,1,107.11,77.46ZM70.19,10.32a3,3,0,0,0-3,3V72.46a3,3,0,0,0,3,3h36.92a3,3,0,0,0,3-3V13.32a3,3,0,0,0-3-3Z"/>
        <path class="activity-icons" d="M164.68,69.14H127.75a5,5,0,0,1-5-5V5a5,5,0,0,1,5-5h36.93a5,5,0,0,1,5,5V64.14A5,5,0,0,1,164.68,69.14ZM127.75,2a3,3,0,0,0-3,3V64.14a3,3,0,0,0,3,3h36.93a3,3,0,0,0,3-3V5a3,3,0,0,0-3-3Z"/>
        <path class="activity-icons" d="M237.49,77.46H200.56a5,5,0,0,1-5-5V13.32a5,5,0,0,1,5-5h36.93a5,5,0,0,1,5,5V72.46A5,5,0,0,1,237.49,77.46ZM200.56,10.32a3,3,0,0,0-3,3V72.46a3,3,0,0,0,3,3h36.93a3,3,0,0,0,3-3V13.32a3,3,0,0,0-3-3Z"/>
        <path class="activity-icons" d="M302.67,77.46H265.74a5,5,0,0,1-5-5V13.32a5,5,0,0,1,5-5h36.93a5,5,0,0,1,5,5V72.46A5,5,0,0,1,302.67,77.46ZM265.74,10.32a3,3,0,0,0-3,3V72.46a3,3,0,0,0,3,3h36.93a3,3,0,0,0,3-3V13.32a3,3,0,0,0-3-3Z"/>
        <path class="activity-icons" d="M41.93,77.46H5a5,5,0,0,1-5-5V13.32a5,5,0,0,1,5-5H41.93a5,5,0,0,1,5,5V72.46A5,5,0,0,1,41.93,77.46ZM5,10.32a3,3,0,0,0-3,3V72.46a3,3,0,0,0,3,3H41.93a3,3,0,0,0,3-3V13.32a3,3,0,0,0-3-3Z"/>
      </g>
    </g>
  </g>
</svg>
