<svg xmlns="http://www.w3.org/2000/svg" viewBox="0 0 253.98 61.96">
  <defs>
    <style>
      .activity-icons {
        fill: #fff;
      }
    </style>
  </defs>
  <title>Asset 31</title>
  <g id="Layer_2" data-name="Layer 2">
    <g id="Activity_Thumbnails" data-name="Activity Thumbnails">
      <g>
        <path class="activity-icons" d="M11,30.46a1,1,0,0,1,1-1h0a1,1,0,0,1,1,1h0a1,1,0,0,1-1,1h0A1,1,0,0,1,11,30.46Zm-3.59.1h0a1,1,0,0,1-.54-1.3h0a1,1,0,0,1,1.3-.54h0A1,1,0,0,1,8.73,30h0a1,1,0,0,1-.93.62h0A1,1,0,0,1,7.42,30.56ZM15.29,30a1,1,0,0,1,.54-1.31h0a1,1,0,0,1,1.31.54h0a1,1,0,0,1-.54,1.3h0a1,1,0,0,1-.38.07h0A1,1,0,0,1,15.29,30ZM3.53,28h0a1,1,0,0,1,0-1.42h0a1,1,0,0,1,1.42,0h0a1,1,0,0,1,0,1.42h0a1,1,0,0,1-.71.29h0A1,1,0,0,1,3.53,28Zm15.55,0a1,1,0,0,1,0-1.41h0a1,1,0,0,1,1.42,0h0a1,1,0,0,1,0,1.41h0a1,1,0,0,1-.71.29h0A1,1,0,0,1,19.08,27.94ZM.92,24.07a1,1,0,0,1,.54-1.31h0a1,1,0,0,1,1.3.54h0a1,1,0,0,1-.53,1.31h0a1.09,1.09,0,0,1-.39.08h0A1,1,0,0,1,.92,24.07Zm20.87.52a1,1,0,0,1-.55-1.31h0a1,1,0,0,1,1.31-.54h0a1,1,0,0,1,.54,1.31h0a1,1,0,0,1-.93.62h0A1,1,0,0,1,21.79,24.59ZM0,19.48a1,1,0,0,1,1-1H1a1,1,0,0,1,1,1H2a1,1,0,0,1-1,1H1A1,1,0,0,1,0,19.48Zm22,0v-.08h0a1,1,0,0,1,1-1h0a1,1,0,0,1,1,1h0v0h0v0h0a1,1,0,0,1-1,1h0A1,1,0,0,1,22,19.5ZM1.44,16.2A1,1,0,0,1,.9,14.89h0a1,1,0,0,1,1.31-.54h0a1,1,0,0,1,.54,1.3h0a1,1,0,0,1-.92.62h0A1.07,1.07,0,0,1,1.44,16.2Zm19.79-.6a1,1,0,0,1,.53-1.31h0a1,1,0,0,1,1.31.53h0a1,1,0,0,1-.53,1.31h0a1.09,1.09,0,0,1-.39.08h0A1,1,0,0,1,21.23,15.6ZM3.5,12.41a1,1,0,0,1,0-1.41h0a1,1,0,0,1,1.42,0h0a1,1,0,0,1,0,1.42h0a1,1,0,0,1-.71.29h0A1,1,0,0,1,3.5,12.41Zm15.55-.05A1,1,0,0,1,19,11h0a1,1,0,0,1,1.41,0h0a1,1,0,0,1,0,1.42h0a1,1,0,0,1-.71.29h0A1,1,0,0,1,19.05,12.36ZM6.84,9.69a1,1,0,0,1,.53-1.31h0a1,1,0,0,1,1.31.54h0a1,1,0,0,1-.53,1.31h0a1.09,1.09,0,0,1-.39.08h0A1,1,0,0,1,6.84,9.69Zm9,.52a1,1,0,0,1-.55-1.31h0a1,1,0,0,1,1.31-.54h0a1,1,0,0,1,.54,1.3h0a1,1,0,0,1-.93.62h0A1,1,0,0,1,15.8,10.21ZM11,8.46a1,1,0,0,1,1-1h0a1,1,0,0,1,1,1h0a1,1,0,0,1-1,1h0A1,1,0,0,1,11,8.46Z"/>
        <path class="activity-icons" d="M64.16,61a1,1,0,0,1,1-1h0a1,1,0,0,1,1,1h0a1,1,0,0,1-1,1h0A1,1,0,0,1,64.16,61Zm-3.59.09a1,1,0,0,1-.54-1.3h0a1,1,0,0,1,1.3-.54h0a1,1,0,0,1,.55,1.3h0a1,1,0,0,1-.93.62h0A.84.84,0,0,1,60.57,61.05Zm7.87-.54A1,1,0,0,1,69,59.2h0a1,1,0,0,1,1.31.54h0a1,1,0,0,1-.54,1.31h0a1.06,1.06,0,0,1-.38.07h0A1,1,0,0,1,68.44,60.51Zm-11.77-2a1,1,0,0,1,0-1.42h0a1,1,0,0,1,1.42,0h0a1,1,0,0,1,0,1.42h0a1,1,0,0,1-.71.29h0A1,1,0,0,1,56.67,58.46Zm15.56,0a1,1,0,0,1,0-1.41h0a1,1,0,0,1,1.42,0h0a1,1,0,0,1,0,1.42h0a1,1,0,0,1-.71.29h0A.94.94,0,0,1,72.23,58.44ZM54.07,54.57a1,1,0,0,1,.54-1.3h0a1,1,0,0,1,1.3.53h0a1,1,0,0,1-.53,1.31h0a1.09,1.09,0,0,1-.39.08h0A1,1,0,0,1,54.07,54.57Zm20.86.52a1,1,0,0,1-.54-1.3h0a1,1,0,0,1,1.31-.55h0a1,1,0,0,1,.54,1.31h0a1,1,0,0,1-.93.62h0A1.08,1.08,0,0,1,74.93,55.09ZM53.15,50a1,1,0,0,1,1-1h0a1,1,0,0,1,1,1h0a1,1,0,0,1-1,1h0A1,1,0,0,1,53.15,50Zm22,0v0h0v0h0a1,1,0,0,1,1-1h0a1,1,0,0,1,1,1h0v0h0v0h0a1,1,0,0,1-1,1h0A1,1,0,0,1,75.15,50ZM54.59,46.7a1,1,0,0,1-.54-1.31h0a1,1,0,0,1,1.3-.54h0a1,1,0,0,1,.55,1.3h0a1,1,0,0,1-.93.62h0A1,1,0,0,1,54.59,46.7Zm19.78-.6a1,1,0,0,1,.54-1.31h0a1,1,0,0,1,1.31.53h0a1,1,0,0,1-.53,1.31h0a.91.91,0,0,1-.39.08h0A1,1,0,0,1,74.37,46.1ZM56.65,42.91a1,1,0,0,1,0-1.41h0a1,1,0,0,1,1.41,0h0a1,1,0,0,1,0,1.41h0a1,1,0,0,1-.71.3h0A1,1,0,0,1,56.65,42.91Zm15.54,0h0a1,1,0,0,1,0-1.41h0a1,1,0,0,1,1.41,0h0a1,1,0,0,1,0,1.42h0a1,1,0,0,1-.71.29h0A1,1,0,0,1,72.19,42.86ZM60,40.19a1,1,0,0,1,.53-1.31h0a1,1,0,0,1,1.31.54h0a1,1,0,0,1-.54,1.31h0a1,1,0,0,1-.38.08h0A1,1,0,0,1,60,40.19Zm8.95.52a1,1,0,0,1-.54-1.31h0a1,1,0,0,1,1.3-.54h0a1,1,0,0,1,.55,1.3h0a1,1,0,0,1-.93.62h0A1.06,1.06,0,0,1,68.94,40.71ZM64.11,39a1,1,0,0,1,1-1h0a1,1,0,0,1,1,1h0a1,1,0,0,1-1,1h0A1,1,0,0,1,64.11,39Z"/>
        <path class="activity-icons" d="M241,44.45a1,1,0,0,1,1-1h0a1,1,0,0,1,1,1h0a1,1,0,0,1-1,1h0A1,1,0,0,1,241,44.45Zm-3.59.09h0a1,1,0,0,1-.54-1.31h0a1,1,0,0,1,1.3-.54h0A1,1,0,0,1,238.7,44h0a1,1,0,0,1-.92.62h0A1,1,0,0,1,237.4,44.54Zm7.87-.55a1,1,0,0,1,.54-1.3h0a1,1,0,0,1,1.31.53h0a1,1,0,0,1-.54,1.31h0a.87.87,0,0,1-.38.08h0A1,1,0,0,1,245.27,44Zm-11.76-2.05a1,1,0,0,1,0-1.41h0a1,1,0,0,1,1.41,0h0a1,1,0,0,1,0,1.41h0a1,1,0,0,1-.71.29h0A1,1,0,0,1,233.51,41.94Zm15.54,0a1,1,0,0,1,0-1.42h0a1,1,0,0,1,1.42,0h0a1,1,0,0,1,0,1.42h0a1,1,0,0,1-.71.29h0A1,1,0,0,1,249.05,41.93ZM230.9,38.06a1,1,0,0,1,.54-1.31h0a1,1,0,0,1,1.3.54h0a1,1,0,0,1-.54,1.31h0a1,1,0,0,1-.38.07h0A1,1,0,0,1,230.9,38.06Zm20.86.52a1,1,0,0,1-.54-1.31h0a1,1,0,0,1,1.31-.54h0a1,1,0,0,1,.54,1.31h0a1,1,0,0,1-.93.61h0A1.06,1.06,0,0,1,251.76,38.58ZM230,33.47a1,1,0,0,1,1-1h0a1,1,0,0,1,1,1h0a1,1,0,0,1-1,1h0A1,1,0,0,1,230,33.47Zm22,0v0h0v0h0a1,1,0,0,1,1-1h0a1,1,0,0,1,1,1h0v0h0v0h0a1,1,0,0,1-1,1h0A1,1,0,0,1,252,33.45Zm2-.05h0Zm-22.56-3.22a1,1,0,0,1-.54-1.3h0a1,1,0,0,1,1.3-.55h0a1,1,0,0,1,.55,1.31h0a1,1,0,0,1-.93.62h0A1.08,1.08,0,0,1,231.42,30.18Zm19.78-.6a1,1,0,0,1,.54-1.31h0a1,1,0,0,1,1.31.54h0a1,1,0,0,1-.54,1.31h0a1,1,0,0,1-.38.08h0A1,1,0,0,1,251.2,29.58ZM233.48,26.4a1,1,0,0,1,0-1.42h0a1,1,0,0,1,1.42,0h0a1,1,0,0,1,0,1.41h0a1,1,0,0,1-.71.3h0A1,1,0,0,1,233.48,26.4Zm15.54,0a1,1,0,0,1,0-1.42h0a1,1,0,0,1,1.41,0h0a1,1,0,0,1,0,1.41h0a1,1,0,0,1-.71.3h0A1,1,0,0,1,249,26.35Zm-12.2-2.67a1,1,0,0,1,.54-1.31h0a1,1,0,0,1,1.3.53h0a1,1,0,0,1-.53,1.31h0a.91.91,0,0,1-.39.08h0A1,1,0,0,1,236.82,23.68Zm9,.51a1,1,0,0,1-.55-1.3h0a1,1,0,0,1,1.31-.55h0a1,1,0,0,1,.54,1.31h0a1,1,0,0,1-.92.62h0A1,1,0,0,1,245.78,24.19ZM241,22.45a1,1,0,0,1,1-1h0a1,1,0,0,1,1,1h0a1,1,0,0,1-1,1h0A1,1,0,0,1,241,22.45Z"/>
        <path class="activity-icons" d="M186.65,0H134.3a19.33,19.33,0,1,0,0,38.65h6.23l.05,11.5L146,44.62l3.65,9.44,6.43-2.51L152,42.25l7.79.4-3.66-4h30.53a19.33,19.33,0,1,0,0-38.65ZM144.71,26.18l-4.24-4.63,0,7.29-.29.1a10.35,10.35,0,0,1-2.77.39A10,10,0,1,1,144.85,26,1.85,1.85,0,0,0,144.71,26.18Zm4.15,13.9,4.54,10.36-2.62,1L146.73,41l-4.17,4.26-.07-18.55L155,40.4Zm37.79-3.43H154.29l-8.23-9c.09-.09.19-.17.27-.26a12,12,0,1,0-8.89,3.94,11.77,11.77,0,0,0,3.07-.41l0,5.73H134.3A17.33,17.33,0,1,1,134.3,2h52.35a17.33,17.33,0,1,1,0,34.65Z"/>
      </g>
    </g>
  </g>
</svg>
