<?xml version="1.0" encoding="UTF-8"?>
<svg width="31px" height="44px" viewBox="0 0 31 44" version="1.1" xmlns="http://www.w3.org/2000/svg" xmlns:xlink="http://www.w3.org/1999/xlink">
    <!-- Generator: Sketch 54.1 (76490) - https://sketchapp.com -->
    <title>Group 3</title>
    <desc>Created with Sketch.</desc>
    <g id="Hotspot-Interstitial" stroke="none" stroke-width="1" fill="none" fill-rule="evenodd">
        <g id="M---Start-Def-Copy-36" transform="translate(-193.000000, -521.000000)">
            <g id="Group-3" transform="translate(194.000000, 522.000000)">
                <path d="M14.4997736,40.5057168 C14.4814115,40.5362865 14.4635695,40.5661685 14.4462428,40.5953715 C14.2658737,40.8993714 14.1399499,41.1320208 14.065697,41.3027058 C14.0144193,41.4205776 13.9825378,41.5178293 13.9713187,41.6175534 C13.9379597,41.9140715 14.1081938,42.2321429 14.5,42.2321429 C14.8920206,42.2321429 15.0621371,41.9138483 15.028603,41.6172785 C15.0173314,41.517594 14.9854125,41.4203787 14.9340942,41.3025412 C14.8597768,41.131893 14.733772,40.8992773 14.553288,40.5952858 C14.535966,40.5661102 14.5181296,40.5362568 14.4997736,40.5057168 Z M14.5,41.2321429 C14.1593429,41.2321429 14.0102291,41.5111403 14.0349351,41.7296358 C14.0375258,41.7525475 14.0319173,41.7354657 14.017265,41.7018209 C13.9635238,41.57842 13.854245,41.3766818 13.6934196,41.1058015 C13.3849512,40.5862442 12.8980298,39.8293295 12.2058043,38.788648 C11.4216352,37.6097396 7.88718133,32.4043486 7.33057104,31.5776133 C7.16966112,31.3386132 7.01313061,31.1056871 6.86017601,30.877617 C3.68836324,26.1481391 1.73620295,23.0261816 0.901239212,21.2069374 C-0.0174850634,19.2051932 -0.5,17.0163098 -0.5,14.7589286 C-0.5,6.33361651 6.2137285,-0.5 14.5,-0.5 C22.7862715,-0.5 29.5,6.33361651 29.5,14.7589286 C29.5,17.0244754 29.0139836,19.2209865 28.0888519,21.2284832 C27.2523583,23.0436389 25.3018711,26.1599423 22.1283679,30.8913299 C21.9778919,31.1156751 21.8239254,31.3447709 21.6656824,31.5798077 C21.1406003,32.3597074 17.5837294,37.5993567 16.7929966,38.7886429 C16.1014118,39.8288075 15.6145966,40.5859562 15.30626,41.1056366 C15.1455558,41.3764925 15.0363636,41.5782297 14.9826844,41.7016218 C14.9680592,41.7352407 14.9624684,41.752295 14.9650497,41.7293504 C14.9896244,41.5109132 14.8404245,41.2321429 14.5,41.2321429 Z" id="Oval-Copy-3" stroke="#FFFFFF"></path>
                <ellipse id="Oval-Copy-4" stroke="#ED682E" fill="#FFFFFF" cx="14.5" cy="14.6160714" rx="6.5" ry="6.61607143"></ellipse>
            </g>
        </g>
    </g>
</svg>
