<svg xmlns="http://www.w3.org/2000/svg" viewBox="0 0 445 98" preserveAspectRatio="none">
  <defs>
    <style>
      .a {
        fill: #2aaae2;
      }

      .b {
        fill: #fff;
      }
    </style>
  </defs>
  <title>Match1_Border</title>
  <g>
    <path class="a" d="M8,97a7,7,0,0,1-7-7V8A7,7,0,0,1,8,1H407V32.88l.44.3c.19.13,4.62,3.08,9,3.08a7.58,7.58,0,0,0,4-1,16.76,16.76,0,0,1,8.69-2.68l.93-.07h.17c2.27,0,13.81,2.6,13.81,15,0,5.17-2,9.2-5.88,12a15.78,15.78,0,0,1-7.93,3H430l-.93-.07a16.73,16.73,0,0,1-8.69-2.67,7.59,7.59,0,0,0-4-1c-4.38,0-8.81,3-9,3.09l-.44.29V97Z"/>
    <path class="b" d="M406,2V33.41l.88.6c.2.13,4.88,3.25,9.56,3.25a8.49,8.49,0,0,0,4.47-1.17,15.9,15.9,0,0,1,8.24-2.53l1-.07h.09a15,15,0,0,1,7.35,2.8A13,13,0,0,1,443,47.48a13,13,0,0,1-5.46,11.17,15.07,15.07,0,0,1-7.35,2.8h-.09l-1-.06a16,16,0,0,1-8.24-2.54,8.59,8.59,0,0,0-4.47-1.17c-4.68,0-9.36,3.12-9.56,3.26l-.88.59V96H8a6,6,0,0,1-6-6V8A6,6,0,0,1,8,2H406m2-2H8A8,8,0,0,0,0,8V90a8,8,0,0,0,8,8H408V62.58s4.31-2.91,8.44-2.91a6.55,6.55,0,0,1,3.44.89,18.91,18.91,0,0,0,10.05,2.88h.26c2.95,0,14.81-3.14,14.81-16v0c0-12.83-11.86-16-14.81-16h-.26c-2.41.21-5.36.05-10.05,2.88a6.54,6.54,0,0,1-3.44.88c-4.13,0-8.44-2.91-8.44-2.91V0Z"/>
  </g>
</svg>
