<svg xmlns="http://www.w3.org/2000/svg" viewBox="0 0 444 98" preserveAspectRatio="none">
  <defs>
    <style>
      .a {
        fill: #2aaae2;
      }

      .b {
        fill: #fff;
      }
    </style>
  </defs>
  <title>Match2_Border</title>
  <g>
    <path class="a" d="M1,97V63.2c1.16-.69,4.4-2.46,7.44-2.46a5.58,5.58,0,0,1,2.92.74,18.73,18.73,0,0,0,9.6,3l.88.07h.35c2.6,0,15.81-3,15.81-17s-13.21-17-15.81-17l-.35,0-.88.06a18.76,18.76,0,0,0-9.6,3,5.58,5.58,0,0,1-2.92.74c-3,0-6.29-1.77-7.44-2.47V1H436a7,7,0,0,1,7,7V90a7,7,0,0,1-7,7Z"/>
    <path class="b" d="M436,2a6,6,0,0,1,6,6V90a6,6,0,0,1-6,6H2V63.77a14.7,14.7,0,0,1,6.44-2,4.68,4.68,0,0,1,2.41.59,19.69,19.69,0,0,0,10,3.1l.87.06a2.89,2.89,0,0,0,.43,0c4.49,0,16.81-4.26,16.81-18s-12.32-18-16.81-18l-.43,0-.87.06a19.89,19.89,0,0,0-10,3.1,4.58,4.58,0,0,1-2.41.6,14.56,14.56,0,0,1-6.44-2V2H436m0-2H0V32.42s4.31,2.91,8.44,2.91a6.55,6.55,0,0,0,3.44-.89,18.91,18.91,0,0,1,10-2.88h.26c2.95,0,14.81,3.14,14.81,16v0c0,12.83-11.86,16-14.81,16h-.26c-2.41-.21-5.36,0-10-2.88a6.54,6.54,0,0,0-3.44-.88C4.31,59.74,0,62.65,0,62.65V98H436a8,8,0,0,0,8-8V8a8,8,0,0,0-8-8Z"/>
  </g>
</svg>
